<svg width="199" height="56" viewBox="0 0 199 56" fill="none" xmlns="http://www.w3.org/2000/svg">
<path d="M1 1C2.68667 3.76923 12.27 11.8462 1 22C4.22 20 12.27 11.8462 24 22C21.6233 18.6923 12.27 11.8462 24 1C20.8567 3.15385 12.27 11.8462 1 1ZM1 11.8462C4.60333 12.8462 11.902 12.0769 12.27 1C11.12 4.61538 11.856 11.8462 24 11.8462C20.09 11 12.27 11.8462 12.27 22C13.0367 18.6154 11.856 11.8462 1 11.8462Z" stroke="black"/>
<path d="M28.224 48V25.6H44.128V28.928H31.68V44.672H44.128V48H28.224ZM29.92 38.176V34.848H42.368V38.176H29.92ZM56.745 48V28.928H49.577V25.6H67.561V28.928H60.201V48H56.745ZM73.724 48V25.6H89.628V28.928H77.18V44.672H89.628V48H73.724ZM75.42 38.176V34.848H87.868V38.176H75.42ZM97.349 48V25.6H108.293C109.594 25.6 110.789 25.9093 111.877 26.528C112.965 27.1467 113.829 27.9893 114.469 29.056C115.109 30.1227 115.429 31.3173 115.429 32.64C115.429 33.8987 115.088 35.0613 114.405 36.128C113.744 37.1947 112.848 38.048 111.717 38.688C110.608 39.328 109.381 39.648 108.037 39.648H100.805V48H97.349ZM112.261 48L105.797 37.888L109.413 37.088L116.517 48.032L112.261 48ZM100.805 36.32H108.101C108.805 36.32 109.434 36.16 109.989 35.84C110.565 35.4987 111.013 35.0507 111.333 34.496C111.674 33.92 111.845 33.2907 111.845 32.608C111.845 31.904 111.653 31.2747 111.269 30.72C110.906 30.1653 110.394 29.728 109.733 29.408C109.093 29.088 108.368 28.928 107.557 28.928H100.805V36.32ZM123.63 48V25.6H126.862L142.35 43.936L141.966 44.224C141.86 43.648 141.774 43.0293 141.71 42.368C141.646 41.6853 141.582 40.9813 141.518 40.256C141.476 39.5093 141.433 38.7413 141.39 37.952C141.369 37.1413 141.348 36.32 141.326 35.488C141.326 34.656 141.326 33.8133 141.326 32.96V25.6H144.782V48H141.486L126.222 30.336L126.446 29.888C126.51 30.8267 126.574 31.68 126.638 32.448C126.702 33.1947 126.766 33.8773 126.83 34.496C126.894 35.1147 126.937 35.68 126.958 36.192C127.001 36.6827 127.033 37.1413 127.054 37.568C127.076 37.9733 127.086 38.3467 127.086 38.688V48H123.63ZM150.633 48L160.201 25.6H163.945L173.449 48H169.705L163.625 33.728C163.518 33.472 163.369 33.0987 163.177 32.608C163.006 32.096 162.814 31.552 162.601 30.976C162.387 30.4 162.185 29.856 161.993 29.344C161.801 28.8107 161.651 28.3947 161.545 28.096L162.409 28.064C162.259 28.4907 162.089 28.96 161.897 29.472C161.726 29.984 161.534 30.5067 161.321 31.04C161.129 31.5733 160.937 32.0853 160.745 32.576C160.553 33.0453 160.382 33.472 160.233 33.856L154.185 48H150.633ZM154.825 42.56L156.169 39.232H167.561L168.681 42.56H154.825ZM179.349 48V25.6H182.805V44.672H195.093V48H179.349Z" fill="black"/>
</svg>
