<svg width="38" height="47" viewBox="0 0 38 47" fill="none" xmlns="http://www.w3.org/2000/svg">
<path d="M14.4268 30.291L13.793 30.71C13.4062 30.137 12.9014 29.6859 12.2783 29.3564C11.6624 29.0199 10.9928 28.8516 10.2695 28.8516C9.09505 28.8516 8.09245 29.2669 7.26172 30.0977C6.43099 30.9284 6.01562 31.931 6.01562 33.1055C6.01562 34.2799 6.43099 35.2826 7.26172 36.1133C8.09245 36.944 9.09505 37.3594 10.2695 37.3594C10.9928 37.3594 11.6624 37.1911 12.2783 36.8545C12.9014 36.5179 13.4062 36.0632 13.793 35.4902L14.416 35.9414C13.9577 36.6146 13.3633 37.1481 12.6328 37.542C11.9023 37.9359 11.1146 38.1328 10.2695 38.1328C9.58919 38.1328 8.9375 38.0003 8.31445 37.7354C7.69857 37.4704 7.16504 37.1123 6.71387 36.6611C6.2627 36.21 5.90462 35.6764 5.63965 35.0605C5.37467 34.4375 5.24219 33.7858 5.24219 33.1055C5.24219 32.4251 5.37467 31.777 5.63965 31.1611C5.90462 30.5381 6.2627 30.001 6.71387 29.5498C7.16504 29.0986 7.69857 28.7406 8.31445 28.4756C8.9375 28.2106 9.58919 28.0781 10.2695 28.0781C11.1217 28.0781 11.9131 28.2786 12.6436 28.6797C13.374 29.0736 13.9684 29.6107 14.4268 30.291ZM15.7051 29.4102L15.0605 29.8291C14.5306 29.0557 13.8431 28.4434 12.998 27.9922C12.1602 27.5339 11.2507 27.3047 10.2695 27.3047C9.2168 27.3047 8.24642 27.5661 7.3584 28.0889C6.47038 28.6045 5.76497 29.3063 5.24219 30.1943C4.72656 31.0824 4.46875 32.0527 4.46875 33.1055C4.46875 34.1582 4.72656 35.1286 5.24219 36.0166C5.76497 36.9046 6.47038 37.61 7.3584 38.1328C8.24642 38.6484 9.2168 38.9062 10.2695 38.9062C11.2507 38.9062 12.1637 38.6771 13.0088 38.2188C13.8538 37.7604 14.5413 37.141 15.0713 36.3604L15.7051 36.8008C15.1035 37.6888 14.3229 38.3906 13.3633 38.9062C12.4108 39.4219 11.3796 39.6797 10.2695 39.6797C9.08073 39.6797 7.98145 39.3861 6.97168 38.7988C5.96191 38.2116 5.16341 37.4131 4.57617 36.4033C3.98893 35.3936 3.69531 34.2943 3.69531 33.1055C3.69531 31.9167 3.98893 30.8174 4.57617 29.8076C5.16341 28.7979 5.96191 27.9993 6.97168 27.4121C7.98145 26.8249 9.08073 26.5312 10.2695 26.5312C11.3796 26.5312 12.4108 26.7891 13.3633 27.3047C14.3229 27.8203 15.1035 28.5221 15.7051 29.4102ZM16.9941 28.5508L16.3496 28.9697C15.6764 27.9814 14.8027 27.2008 13.7285 26.6279C12.6615 26.0479 11.5085 25.7578 10.2695 25.7578C9.27409 25.7578 8.32161 25.9512 7.41211 26.3379C6.5026 26.7246 5.71842 27.2474 5.05957 27.9062C4.40788 28.5579 3.88867 29.3385 3.50195 30.248C3.11523 31.1576 2.92188 32.11 2.92188 33.1055C2.92188 34.1009 3.11523 35.0534 3.50195 35.9629C3.88867 36.8724 4.40788 37.6566 5.05957 38.3154C5.71842 38.9671 6.5026 39.4863 7.41211 39.873C8.32161 40.2598 9.27409 40.4531 10.2695 40.4531C11.5156 40.4531 12.6722 40.1631 13.7393 39.583C14.8063 39.0029 15.6764 38.2188 16.3496 37.2305L16.9727 37.6924C16.2279 38.7809 15.2646 39.6439 14.083 40.2812C12.9085 40.9115 11.6374 41.2266 10.2695 41.2266C8.80143 41.2266 7.44434 40.8649 6.19824 40.1416C4.95215 39.4111 3.96387 38.4229 3.2334 37.1768C2.51009 35.9307 2.14844 34.5736 2.14844 33.1055C2.14844 31.6374 2.51009 30.2803 3.2334 29.0342C3.96387 27.7881 4.95215 26.8034 6.19824 26.0801C7.44434 25.3496 8.80143 24.9844 10.2695 24.9844C11.6445 24.9844 12.9229 25.3066 14.1045 25.9512C15.2861 26.5885 16.2493 27.4551 16.9941 28.5508ZM18.2617 27.6699L17.6172 28.0889C16.8008 26.8929 15.7445 25.9476 14.4482 25.2529C13.1592 24.5583 11.7663 24.2109 10.2695 24.2109C9.06641 24.2109 7.91341 24.4473 6.81055 24.9199C5.71484 25.3854 4.76953 26.0156 3.97461 26.8105C3.17969 27.6055 2.5459 28.5544 2.07324 29.6572C1.60775 30.7529 1.375 31.9023 1.375 33.1055C1.375 34.3086 1.60775 35.4616 2.07324 36.5645C2.5459 37.6602 3.17969 38.6055 3.97461 39.4004C4.76953 40.1953 5.71484 40.8291 6.81055 41.3018C7.91341 41.7673 9.06641 42 10.2695 42C11.7663 42 13.1628 41.6491 14.459 40.9473C15.7552 40.2454 16.8115 39.2965 17.6279 38.1006L18.251 38.5732C17.363 39.8623 16.2171 40.8864 14.8135 41.6455C13.4098 42.3975 11.8952 42.7734 10.2695 42.7734C8.95898 42.7734 7.70573 42.5156 6.50977 42C5.32096 41.4915 4.29329 40.8076 3.42676 39.9482C2.56738 39.0817 1.87988 38.054 1.36426 36.8652C0.855794 35.6693 0.601562 34.416 0.601562 33.1055C0.601562 31.7949 0.855794 30.5452 1.36426 29.3564C1.87988 28.1605 2.56738 27.1328 3.42676 26.2734C4.29329 25.4069 5.32096 24.7194 6.50977 24.2109C7.70573 23.6953 8.95898 23.4375 10.2695 23.4375C11.9023 23.4375 13.4206 23.8171 14.8242 24.5762C16.2279 25.3353 17.3737 26.3665 18.2617 27.6699Z" fill="white"/>
<path d="M32.2109 32.708H32.9844V42H32.2109V32.708ZM35.3047 32.708H36.0781V42H35.3047V32.708ZM33.7578 32.708H34.5312V42H33.7578V32.708ZM31.4375 32.708V42C30.0768 42.5156 28.666 42.7734 27.2051 42.7734C25.9375 42.7734 24.7236 42.5407 23.5635 42.0752C22.4033 41.6097 21.3828 40.9652 20.502 40.1416C19.6211 39.3109 18.9157 38.2868 18.3857 37.0693C17.863 35.8447 17.6016 34.5234 17.6016 33.1055C17.6016 31.7949 17.8558 30.5452 18.3643 29.3564C18.8799 28.1605 19.5674 27.1328 20.4268 26.2734C21.2933 25.4069 22.321 24.7194 23.5098 24.2109C24.7057 23.6953 25.959 23.4375 27.2695 23.4375C28.9023 23.4375 30.4206 23.8171 31.8242 24.5762C33.2279 25.3353 34.3737 26.3665 35.2617 27.6699L34.6172 28.0889C33.8008 26.8929 32.7445 25.9476 31.4482 25.2529C30.1592 24.5583 28.7663 24.2109 27.2695 24.2109C26.0664 24.2109 24.9134 24.4473 23.8105 24.9199C22.7148 25.3854 21.7695 26.0156 20.9746 26.8105C20.1797 27.6055 19.5459 28.5544 19.0732 29.6572C18.6077 30.7529 18.375 31.9023 18.375 33.1055C18.375 34.4017 18.6149 35.612 19.0947 36.7363C19.5817 37.8607 20.2262 38.8024 21.0283 39.5615C21.8376 40.3206 22.7757 40.9186 23.8428 41.3555C24.9098 41.7852 26.0199 42 27.1729 42C28.3831 42 29.5469 41.8102 30.6641 41.4307V40.6895C29.597 41.0475 28.4762 41.2266 27.3018 41.2266C26.4495 41.2266 25.6188 41.1084 24.8096 40.8721C24.0075 40.6286 23.2627 40.2741 22.5752 39.8086C21.8949 39.3359 21.2969 38.7773 20.7812 38.1328C20.2728 37.4811 19.8717 36.7256 19.5781 35.8662C19.2917 34.9997 19.1484 34.0794 19.1484 33.1055C19.1484 31.6374 19.5101 30.2803 20.2334 29.0342C20.9639 27.7881 21.9521 26.8034 23.1982 26.0801C24.4443 25.3496 25.8014 24.9844 27.2695 24.9844C28.6445 24.9844 29.9229 25.3066 31.1045 25.9512C32.2861 26.5885 33.2493 27.4551 33.9941 28.5508L33.3496 28.9697C32.6764 27.9814 31.8027 27.2008 30.7285 26.6279C29.6615 26.0479 28.5085 25.7578 27.2695 25.7578C26.2741 25.7578 25.3216 25.9512 24.4121 26.3379C23.5026 26.7246 22.7184 27.2474 22.0596 27.9062C21.4079 28.5579 20.8887 29.3385 20.502 30.248C20.1152 31.1576 19.9219 32.11 19.9219 33.1055C19.9219 34.0007 20.0508 34.8421 20.3086 35.6299C20.5736 36.4105 20.9352 37.0944 21.3936 37.6816C21.859 38.2617 22.3997 38.763 23.0156 39.1855C23.6315 39.6009 24.3011 39.916 25.0244 40.1309C25.7549 40.3457 26.5033 40.4531 27.2695 40.4531C28.4583 40.4531 29.5898 40.2526 30.6641 39.8516V39.0781C29.6042 39.4863 28.4977 39.6904 27.3447 39.6904C26.471 39.6904 25.6367 39.5436 24.8418 39.25C24.0469 38.9492 23.3379 38.5267 22.7148 37.9824C22.099 37.4382 21.6084 36.7435 21.2432 35.8984C20.8779 35.0534 20.6953 34.1224 20.6953 33.1055C20.6953 31.9167 20.9889 30.8174 21.5762 29.8076C22.1634 28.7979 22.9619 27.9993 23.9717 27.4121C24.9814 26.8249 26.0807 26.5312 27.2695 26.5312C28.3796 26.5312 29.4108 26.7891 30.3633 27.3047C31.3229 27.8203 32.1035 28.5221 32.7051 29.4102L32.0605 29.8291C31.5306 29.0557 30.8431 28.4434 29.998 27.9922C29.1602 27.5339 28.2507 27.3047 27.2695 27.3047C26.2168 27.3047 25.2464 27.5661 24.3584 28.0889C23.4704 28.6045 22.765 29.3063 22.2422 30.1943C21.7266 31.0824 21.4688 32.0527 21.4688 33.1055C21.4688 33.8359 21.5726 34.5163 21.7803 35.1465C21.988 35.7767 22.2744 36.321 22.6396 36.7793C23.0049 37.2376 23.431 37.6279 23.918 37.9502C24.4121 38.2725 24.9421 38.516 25.5078 38.6807C26.0736 38.8382 26.6608 38.917 27.2695 38.917C28.4798 38.917 29.6113 38.6771 30.6641 38.1973V37.4561C29.6471 37.9072 28.5479 38.1328 27.3662 38.1328C26.6859 38.1328 26.0449 38.029 25.4434 37.8213C24.8418 37.6136 24.2975 37.3092 23.8105 36.9082C23.3307 36.5072 22.9476 35.9808 22.6611 35.3291C22.3818 34.6702 22.2422 33.929 22.2422 33.1055C22.2422 32.4251 22.3747 31.777 22.6396 31.1611C22.9046 30.5381 23.2627 30.001 23.7139 29.5498C24.165 29.0986 24.6986 28.7406 25.3145 28.4756C25.9375 28.2106 26.5892 28.0781 27.2695 28.0781C28.1217 28.0781 28.9131 28.2786 29.6436 28.6797C30.374 29.0736 30.9684 29.6107 31.4268 30.291L30.793 30.71C30.4062 30.137 29.9014 29.6859 29.2783 29.3564C28.6624 29.0199 27.9928 28.8516 27.2695 28.8516C26.0951 28.8516 25.0924 29.2669 24.2617 30.0977C23.431 30.9284 23.0156 31.931 23.0156 33.1055C23.0156 33.8288 23.1338 34.4697 23.3701 35.0283C23.6064 35.5798 23.9287 36.0238 24.3369 36.3604C24.7523 36.6898 25.2106 36.9404 25.7119 37.1123C26.2204 37.277 26.7646 37.3594 27.3447 37.3594C28.5335 37.3594 29.64 37.1123 30.6641 36.6182V32.708H31.4375Z" fill="white"/>
<path d="M15.9725 15.5435L16.4579 14.587H20.5756L21.061 15.5435H15.9725ZM15.0351 17.4565L15.5038 16.5H21.513L22.0319 17.4565H15.0351ZM14.0977 19.3696L14.5664 18.413H22.4671L22.9692 19.3696H14.0977ZM4.30562 22H3L13.9638 0H15.2694L26.2165 22H24.9276L14.6166 1.28865L4.30562 22ZM14.7673 3.56039L15.4536 4.78261L6.88337 22H5.59449L14.7673 3.56039ZM16.1064 6.08454L16.7424 7.39976L9.4946 22H8.18898L16.1064 6.08454ZM17.3785 8.71498L18.0146 10.0568L12.0724 22H10.7835L17.3785 8.71498ZM34 22H32.6944L21.7473 0H23.0362L34 22ZM20.4417 0L31.4055 22H30.1166L19.1528 0H20.4417ZM17.8472 0L28.811 22H27.5054L16.5583 0H17.8472Z" fill="white"/>
<mask id="mask0_27_3" style="mask-type:alpha" maskUnits="userSpaceOnUse" x="0" y="0" width="37" height="43">
<path d="M14.4268 30.291L13.793 30.71C13.4062 30.137 12.9014 29.6859 12.2783 29.3564C11.6624 29.0199 10.9928 28.8516 10.2695 28.8516C9.09505 28.8516 8.09245 29.2669 7.26172 30.0977C6.43099 30.9284 6.01562 31.931 6.01562 33.1055C6.01562 34.2799 6.43099 35.2826 7.26172 36.1133C8.09245 36.944 9.09505 37.3594 10.2695 37.3594C10.9928 37.3594 11.6624 37.1911 12.2783 36.8545C12.9014 36.5179 13.4062 36.0632 13.793 35.4902L14.416 35.9414C13.9577 36.6146 13.3633 37.1481 12.6328 37.542C11.9023 37.9359 11.1146 38.1328 10.2695 38.1328C9.58919 38.1328 8.9375 38.0003 8.31445 37.7354C7.69857 37.4704 7.16504 37.1123 6.71387 36.6611C6.2627 36.21 5.90462 35.6764 5.63965 35.0605C5.37467 34.4375 5.24219 33.7858 5.24219 33.1055C5.24219 32.4251 5.37467 31.777 5.63965 31.1611C5.90462 30.5381 6.2627 30.001 6.71387 29.5498C7.16504 29.0986 7.69857 28.7406 8.31445 28.4756C8.9375 28.2106 9.58919 28.0781 10.2695 28.0781C11.1217 28.0781 11.9131 28.2786 12.6436 28.6797C13.374 29.0736 13.9684 29.6107 14.4268 30.291ZM15.7051 29.4102L15.0605 29.8291C14.5306 29.0557 13.8431 28.4434 12.998 27.9922C12.1602 27.5339 11.2507 27.3047 10.2695 27.3047C9.2168 27.3047 8.24642 27.5661 7.3584 28.0889C6.47038 28.6045 5.76497 29.3063 5.24219 30.1943C4.72656 31.0824 4.46875 32.0527 4.46875 33.1055C4.46875 34.1582 4.72656 35.1286 5.24219 36.0166C5.76497 36.9046 6.47038 37.61 7.3584 38.1328C8.24642 38.6484 9.2168 38.9062 10.2695 38.9062C11.2507 38.9062 12.1637 38.6771 13.0088 38.2188C13.8538 37.7604 14.5413 37.141 15.0713 36.3604L15.7051 36.8008C15.1035 37.6888 14.3229 38.3906 13.3633 38.9062C12.4108 39.4219 11.3796 39.6797 10.2695 39.6797C9.08073 39.6797 7.98145 39.3861 6.97168 38.7988C5.96191 38.2116 5.16341 37.4131 4.57617 36.4033C3.98893 35.3936 3.69531 34.2943 3.69531 33.1055C3.69531 31.9167 3.98893 30.8174 4.57617 29.8076C5.16341 28.7979 5.96191 27.9993 6.97168 27.4121C7.98145 26.8249 9.08073 26.5312 10.2695 26.5312C11.3796 26.5312 12.4108 26.7891 13.3633 27.3047C14.3229 27.8203 15.1035 28.5221 15.7051 29.4102ZM16.9941 28.5508L16.3496 28.9697C15.6764 27.9814 14.8027 27.2008 13.7285 26.6279C12.6615 26.0479 11.5085 25.7578 10.2695 25.7578C9.27409 25.7578 8.32161 25.9512 7.41211 26.3379C6.5026 26.7246 5.71842 27.2474 5.05957 27.9062C4.40788 28.5579 3.88867 29.3385 3.50195 30.248C3.11523 31.1576 2.92188 32.11 2.92188 33.1055C2.92188 34.1009 3.11523 35.0534 3.50195 35.9629C3.88867 36.8724 4.40788 37.6566 5.05957 38.3154C5.71842 38.9671 6.5026 39.4863 7.41211 39.873C8.32161 40.2598 9.27409 40.4531 10.2695 40.4531C11.5156 40.4531 12.6722 40.1631 13.7393 39.583C14.8063 39.0029 15.6764 38.2188 16.3496 37.2305L16.9727 37.6924C16.2279 38.7809 15.2646 39.6439 14.083 40.2812C12.9085 40.9115 11.6374 41.2266 10.2695 41.2266C8.80143 41.2266 7.44434 40.8649 6.19824 40.1416C4.95215 39.4111 3.96387 38.4229 3.2334 37.1768C2.51009 35.9307 2.14844 34.5736 2.14844 33.1055C2.14844 31.6374 2.51009 30.2803 3.2334 29.0342C3.96387 27.7881 4.95215 26.8034 6.19824 26.0801C7.44434 25.3496 8.80143 24.9844 10.2695 24.9844C11.6445 24.9844 12.9229 25.3066 14.1045 25.9512C15.2861 26.5885 16.2493 27.4551 16.9941 28.5508ZM18.2617 27.6699L17.6172 28.0889C16.8008 26.8929 15.7445 25.9476 14.4482 25.2529C13.1592 24.5583 11.7663 24.2109 10.2695 24.2109C9.06641 24.2109 7.91341 24.4473 6.81055 24.9199C5.71484 25.3854 4.76953 26.0156 3.97461 26.8105C3.17969 27.6055 2.5459 28.5544 2.07324 29.6572C1.60775 30.7529 1.375 31.9023 1.375 33.1055C1.375 34.3086 1.60775 35.4616 2.07324 36.5645C2.5459 37.6602 3.17969 38.6055 3.97461 39.4004C4.76953 40.1953 5.71484 40.8291 6.81055 41.3018C7.91341 41.7673 9.06641 42 10.2695 42C11.7663 42 13.1628 41.6491 14.459 40.9473C15.7552 40.2454 16.8115 39.2965 17.6279 38.1006L18.251 38.5732C17.363 39.8623 16.2171 40.8864 14.8135 41.6455C13.4098 42.3975 11.8952 42.7734 10.2695 42.7734C8.95898 42.7734 7.70573 42.5156 6.50977 42C5.32096 41.4915 4.29329 40.8076 3.42676 39.9482C2.56738 39.0817 1.87988 38.054 1.36426 36.8652C0.855794 35.6693 0.601562 34.416 0.601562 33.1055C0.601562 31.7949 0.855794 30.5452 1.36426 29.3564C1.87988 28.1605 2.56738 27.1328 3.42676 26.2734C4.29329 25.4069 5.32096 24.7194 6.50977 24.2109C7.70573 23.6953 8.95898 23.4375 10.2695 23.4375C11.9023 23.4375 13.4206 23.8171 14.8242 24.5762C16.2279 25.3353 17.3737 26.3665 18.2617 27.6699Z" fill="white"/>
<path d="M32.2109 32.708H32.9844V42H32.2109V32.708ZM35.3047 32.708H36.0781V42H35.3047V32.708ZM33.7578 32.708H34.5312V42H33.7578V32.708ZM31.4375 32.708V42C30.0768 42.5156 28.666 42.7734 27.2051 42.7734C25.9375 42.7734 24.7236 42.5407 23.5635 42.0752C22.4033 41.6097 21.3828 40.9652 20.502 40.1416C19.6211 39.3109 18.9157 38.2868 18.3857 37.0693C17.863 35.8447 17.6016 34.5234 17.6016 33.1055C17.6016 31.7949 17.8558 30.5452 18.3643 29.3564C18.8799 28.1605 19.5674 27.1328 20.4268 26.2734C21.2933 25.4069 22.321 24.7194 23.5098 24.2109C24.7057 23.6953 25.959 23.4375 27.2695 23.4375C28.9023 23.4375 30.4206 23.8171 31.8242 24.5762C33.2279 25.3353 34.3737 26.3665 35.2617 27.6699L34.6172 28.0889C33.8008 26.8929 32.7445 25.9476 31.4482 25.2529C30.1592 24.5583 28.7663 24.2109 27.2695 24.2109C26.0664 24.2109 24.9134 24.4473 23.8105 24.9199C22.7148 25.3854 21.7695 26.0156 20.9746 26.8105C20.1797 27.6055 19.5459 28.5544 19.0732 29.6572C18.6077 30.7529 18.375 31.9023 18.375 33.1055C18.375 34.4017 18.6149 35.612 19.0947 36.7363C19.5817 37.8607 20.2262 38.8024 21.0283 39.5615C21.8376 40.3206 22.7757 40.9186 23.8428 41.3555C24.9098 41.7852 26.0199 42 27.1729 42C28.3831 42 29.5469 41.8102 30.6641 41.4307V40.6895C29.597 41.0475 28.4762 41.2266 27.3018 41.2266C26.4495 41.2266 25.6188 41.1084 24.8096 40.8721C24.0075 40.6286 23.2627 40.2741 22.5752 39.8086C21.8949 39.3359 21.2969 38.7773 20.7812 38.1328C20.2728 37.4811 19.8717 36.7256 19.5781 35.8662C19.2917 34.9997 19.1484 34.0794 19.1484 33.1055C19.1484 31.6374 19.5101 30.2803 20.2334 29.0342C20.9639 27.7881 21.9521 26.8034 23.1982 26.0801C24.4443 25.3496 25.8014 24.9844 27.2695 24.9844C28.6445 24.9844 29.9229 25.3066 31.1045 25.9512C32.2861 26.5885 33.2493 27.4551 33.9941 28.5508L33.3496 28.9697C32.6764 27.9814 31.8027 27.2008 30.7285 26.6279C29.6615 26.0479 28.5085 25.7578 27.2695 25.7578C26.2741 25.7578 25.3216 25.9512 24.4121 26.3379C23.5026 26.7246 22.7184 27.2474 22.0596 27.9062C21.4079 28.5579 20.8887 29.3385 20.502 30.248C20.1152 31.1576 19.9219 32.11 19.9219 33.1055C19.9219 34.0007 20.0508 34.8421 20.3086 35.6299C20.5736 36.4105 20.9352 37.0944 21.3936 37.6816C21.859 38.2617 22.3997 38.763 23.0156 39.1855C23.6315 39.6009 24.3011 39.916 25.0244 40.1309C25.7549 40.3457 26.5033 40.4531 27.2695 40.4531C28.4583 40.4531 29.5898 40.2526 30.6641 39.8516V39.0781C29.6042 39.4863 28.4977 39.6904 27.3447 39.6904C26.471 39.6904 25.6367 39.5436 24.8418 39.25C24.0469 38.9492 23.3379 38.5267 22.7148 37.9824C22.099 37.4382 21.6084 36.7435 21.2432 35.8984C20.8779 35.0534 20.6953 34.1224 20.6953 33.1055C20.6953 31.9167 20.9889 30.8174 21.5762 29.8076C22.1634 28.7979 22.9619 27.9993 23.9717 27.4121C24.9814 26.8249 26.0807 26.5312 27.2695 26.5312C28.3796 26.5312 29.4108 26.7891 30.3633 27.3047C31.3229 27.8203 32.1035 28.5221 32.7051 29.4102L32.0605 29.8291C31.5306 29.0557 30.8431 28.4434 29.998 27.9922C29.1602 27.5339 28.2507 27.3047 27.2695 27.3047C26.2168 27.3047 25.2464 27.5661 24.3584 28.0889C23.4704 28.6045 22.765 29.3063 22.2422 30.1943C21.7266 31.0824 21.4688 32.0527 21.4688 33.1055C21.4688 33.8359 21.5726 34.5163 21.7803 35.1465C21.988 35.7767 22.2744 36.321 22.6396 36.7793C23.0049 37.2376 23.431 37.6279 23.918 37.9502C24.4121 38.2725 24.9421 38.516 25.5078 38.6807C26.0736 38.8382 26.6608 38.917 27.2695 38.917C28.4798 38.917 29.6113 38.6771 30.6641 38.1973V37.4561C29.6471 37.9072 28.5479 38.1328 27.3662 38.1328C26.6859 38.1328 26.0449 38.029 25.4434 37.8213C24.8418 37.6136 24.2975 37.3092 23.8105 36.9082C23.3307 36.5072 22.9476 35.9808 22.6611 35.3291C22.3818 34.6702 22.2422 33.929 22.2422 33.1055C22.2422 32.4251 22.3747 31.777 22.6396 31.1611C22.9046 30.5381 23.2627 30.001 23.7139 29.5498C24.165 29.0986 24.6986 28.7406 25.3145 28.4756C25.9375 28.2106 26.5892 28.0781 27.2695 28.0781C28.1217 28.0781 28.9131 28.2786 29.6436 28.6797C30.374 29.0736 30.9684 29.6107 31.4268 30.291L30.793 30.71C30.4062 30.137 29.9014 29.6859 29.2783 29.3564C28.6624 29.0199 27.9928 28.8516 27.2695 28.8516C26.0951 28.8516 25.0924 29.2669 24.2617 30.0977C23.431 30.9284 23.0156 31.931 23.0156 33.1055C23.0156 33.8288 23.1338 34.4697 23.3701 35.0283C23.6064 35.5798 23.9287 36.0238 24.3369 36.3604C24.7523 36.6898 25.2106 36.9404 25.7119 37.1123C26.2204 37.277 26.7646 37.3594 27.3447 37.3594C28.5335 37.3594 29.64 37.1123 30.6641 36.6182V32.708H31.4375Z" fill="white"/>
<path d="M15.9725 15.5435L16.4579 14.587H20.5756L21.061 15.5435H15.9725ZM15.0351 17.4565L15.5038 16.5H21.513L22.0319 17.4565H15.0351ZM14.0977 19.3696L14.5664 18.413H22.4671L22.9692 19.3696H14.0977ZM4.30562 22H3L13.9638 0H15.2694L26.2165 22H24.9276L14.6166 1.28865L4.30562 22ZM14.7673 3.56039L15.4536 4.78261L6.88337 22H5.59449L14.7673 3.56039ZM16.1064 6.08454L16.7424 7.39976L9.4946 22H8.18898L16.1064 6.08454ZM17.3785 8.71498L18.0146 10.0568L12.0724 22H10.7835L17.3785 8.71498ZM34 22H32.6944L21.7473 0H23.0362L34 22ZM20.4417 0L31.4055 22H30.1166L19.1528 0H20.4417ZM17.8472 0L28.811 22H27.5054L16.5583 0H17.8472Z" fill="white"/>
</mask>
<g mask="url(#mask0_27_3)">
<g style="mix-blend-mode:plus-darker">
<path d="M16.3507 -4.79301C17.5284 -6.00232 19.4716 -6.00232 20.6492 -4.79301L36.3181 11.2968C38.1694 13.1979 36.8224 16.3898 34.1689 16.3898H2.8311C0.177514 16.3898 -1.16949 13.1979 0.681847 11.2968L16.3507 -4.79301Z" fill="url(#paint0_linear_27_3)" fill-opacity="0.66"/>
<path d="M16.3471 -4.78146C17.5255 -5.9958 19.4745 -5.9958 20.6529 -4.78146L30.5848 5.45313C32.431 7.35564 31.0829 10.5424 28.4319 10.5424H8.56817C5.91711 10.5424 4.56902 7.35564 6.41525 5.45313L16.3471 -4.78146Z" fill="url(#paint1_linear_27_3)" fill-opacity="0.95"/>
</g>
</g>
<defs>
<linearGradient id="paint0_linear_27_3" x1="18.5" y1="-7" x2="18.5" y2="15.94" gradientUnits="userSpaceOnUse">
<stop stop-color="#FFBF00" stop-opacity="0.5"/>
<stop offset="1" stop-color="#FFC400"/>
</linearGradient>
<linearGradient id="paint1_linear_27_3" x1="18.5" y1="-7" x2="18.5" y2="16.3898" gradientUnits="userSpaceOnUse">
<stop stop-color="#FF0033"/>
<stop offset="1" stop-color="#FF003C" stop-opacity="0"/>
</linearGradient>
</defs>
</svg>
